<svg width="20" height="20" viewBox="0 0 20 20" fill="none" xmlns="http://www.w3.org/2000/svg">
<g clip-path="url(#clip0_376_336)">
<path fill-rule="evenodd" clip-rule="evenodd" d="M2.35635 0.639178C2.57507 0.420789 2.8377 0.251376 3.12685 0.142165C3.41599 0.0329548 3.72504 -0.0135589 4.03352 0.00570636C4.342 0.0249716 4.64287 0.109576 4.91618 0.253913C5.18949 0.39825 5.429 0.599023 5.61885 0.842928L7.8626 3.72543C8.27385 4.25418 8.41885 4.94293 8.25635 5.59293L7.5726 8.33043C7.53725 8.47221 7.53916 8.62073 7.57814 8.76157C7.61713 8.9024 7.69187 9.03076 7.7951 9.13418L10.8663 12.2054C10.9699 12.3089 11.0985 12.3837 11.2395 12.4227C11.3806 12.4617 11.5294 12.4635 11.6713 12.4279L14.4076 11.7442C14.7284 11.664 15.0632 11.6577 15.3867 11.726C15.7102 11.7942 16.014 11.935 16.2751 12.1379L19.1576 14.3804C20.1938 15.1867 20.2888 16.7179 19.3613 17.6442L18.0688 18.9367C17.1438 19.8617 15.7613 20.2679 14.4726 19.8142C11.1741 18.6536 8.17919 16.7652 5.7101 14.2892C3.23421 11.8204 1.34586 8.826 0.1851 5.52793C-0.2674 4.24043 0.13885 2.85668 1.06385 1.93168L2.35635 0.639178Z" fill="black"/>
</g>
<defs>
<clipPath id="clip0_376_336">
<rect width="20" height="20" fill="white"/>
</clipPath>
</defs>
</svg>
