<svg width="28" height="25" viewBox="0 0 28 25" fill="none" xmlns="http://www.w3.org/2000/svg">
<path d="M27.34 12.688C27.1469 12.6292 26.9369 12.6219 26.7387 12.6671C26.5404 12.7123 26.3635 12.8078 26.232 12.9407L22.46 16.7539L17.024 15.9215L13.422 8.37946C13.2059 7.89889 12.8217 7.48488 12.3204 7.19215C11.819 6.89942 11.224 6.74174 10.614 6.73996H6.554C6.01006 6.74009 5.47639 6.86473 5.01 7.10055L0 9.63309V15.0251L5 15.7917V24.4324H7V16.0976L10.565 16.6435L12 19.5459V24.4324H14V19.2089L12.909 17.0032L20.99 18.2409L16.232 23.0507C16.1104 23.1737 16.0329 23.3233 16.0086 23.4821C15.9843 23.6409 16.0142 23.8022 16.0948 23.9472C16.1753 24.0921 16.3033 24.2148 16.4636 24.3007C16.6239 24.3866 16.81 24.4323 17 24.4324H27C27.2652 24.4324 27.5196 24.3436 27.7071 24.1856C27.8946 24.0276 28 23.8133 28 23.5899V13.4799C27.9999 13.3068 27.9365 13.1379 27.8184 12.9962C27.7003 12.8545 27.5333 12.7469 27.34 12.688ZM2 13.6198V10.5868L5 9.07031V14.0789L2 13.6198ZM7 14.3856V8.42496H10.614C10.8211 8.42648 11.0227 8.4814 11.1916 8.58231C11.3605 8.68322 11.4888 8.8253 11.559 8.98943L14.699 15.5651L7 14.3856ZM26 22.7474H19.135L26 15.8069V22.7474ZM10.5 5.89747C9.80777 5.89747 9.13108 5.72453 8.5555 5.40052C7.97993 5.07651 7.53133 4.61598 7.26642 4.07717C7.00151 3.53836 6.9322 2.94546 7.06725 2.37347C7.2023 1.80147 7.53564 1.27605 8.02513 0.863665C8.51461 0.451278 9.13825 0.170438 9.81718 0.0566604C10.4961 -0.0571171 11.1999 0.00127764 11.8394 0.22446C12.4789 0.447643 13.0256 0.82559 13.4101 1.31051C13.7947 1.79542 14 2.36553 14 2.94873C13.9989 3.73051 13.6299 4.48002 12.9737 5.03282C12.3176 5.58562 11.4279 5.89658 10.5 5.89747ZM10.5 1.68499C10.2033 1.68499 9.91332 1.75911 9.66665 1.89797C9.41997 2.03683 9.22771 2.2342 9.11418 2.46512C9.00065 2.69604 8.97094 2.95014 9.02882 3.19528C9.0867 3.44042 9.22956 3.6656 9.43934 3.84234C9.64912 4.01907 9.91639 4.13943 10.2074 4.1882C10.4983 4.23696 10.7999 4.21193 11.074 4.11628C11.3481 4.02063 11.5824 3.85865 11.7472 3.65083C11.912 3.44301 12 3.19868 12 2.94873C11.9995 2.61371 11.8413 2.29253 11.5601 2.05563C11.2789 1.81872 10.8977 1.68544 10.5 1.68499Z" fill="black"/>
</svg>
