<svg width="44" height="45" viewBox="0 0 44 45" fill="none" xmlns="http://www.w3.org/2000/svg">
<path d="M25.3367 40.5384H18.6633C18.2452 40.5385 17.8396 40.3956 17.5138 40.1335C17.188 39.8715 16.9616 39.5059 16.8722 39.0974L16.126 35.6434C15.1306 35.2073 14.1868 34.6619 13.3118 34.0173L9.94399 35.0898C9.54536 35.2169 9.11523 35.2038 8.72504 35.0528C8.33486 34.9017 8.00809 34.6217 7.79899 34.2593L4.45499 28.4824C4.24809 28.1197 4.17043 27.6974 4.2347 27.2848C4.29898 26.8722 4.50139 26.4936 4.80882 26.2109L7.42132 23.8276C7.30252 22.748 7.30252 21.6586 7.42132 20.5789L4.80882 18.2011C4.50096 17.9183 4.29827 17.5394 4.23398 17.1264C4.16969 16.7133 4.24762 16.2907 4.45499 15.9278L7.79166 10.1473C8.00075 9.78484 8.32752 9.50485 8.71771 9.35378C9.1079 9.2027 9.53802 9.18964 9.93666 9.31676L13.3045 10.3893C13.7518 10.0593 14.2175 9.75127 14.6978 9.4726C15.1617 9.21227 15.6383 8.97577 16.126 8.76493L16.874 5.3146C16.963 4.90613 17.189 4.54036 17.5145 4.27794C17.8399 4.01552 18.2453 3.87221 18.6633 3.87177H25.3367C25.7547 3.87221 26.1601 4.01552 26.4855 4.27794C26.811 4.54036 27.0369 4.90613 27.126 5.3146L27.8813 8.76677C28.8754 9.20542 29.819 9.75067 30.6955 10.3929L34.0652 9.32043C34.4635 9.19378 34.8933 9.20708 35.283 9.35813C35.6728 9.50918 35.9993 9.7889 36.2083 10.1509L39.545 15.9314C39.9703 16.6776 39.8237 17.6218 39.1912 18.2029L36.5787 20.5863C36.6975 21.6659 36.6975 22.7553 36.5787 23.8349L39.1912 26.2183C39.8237 26.8013 39.9703 27.7436 39.545 28.4898L36.2083 34.2703C35.9992 34.6327 35.6725 34.9127 35.2823 35.0638C34.8921 35.2148 34.462 35.2279 34.0633 35.1008L30.6955 34.0283C29.8212 34.6724 28.878 35.2172 27.8832 35.6526L27.126 39.0974C27.0366 39.5056 26.8104 39.8709 26.485 40.133C26.1596 40.395 25.7545 40.5381 25.3367 40.5384ZM21.9927 14.8718C20.0477 14.8718 18.1825 15.6444 16.8072 17.0196C15.4319 18.3949 14.6593 20.2602 14.6593 22.2051C14.6593 24.15 15.4319 26.0153 16.8072 27.3905C18.1825 28.7658 20.0477 29.5384 21.9927 29.5384C23.9376 29.5384 25.8028 28.7658 27.1781 27.3905C28.5534 26.0153 29.326 24.15 29.326 22.2051C29.326 20.2602 28.5534 18.3949 27.1781 17.0196C25.8028 15.6444 23.9376 14.8718 21.9927 14.8718Z" fill="black"/>
</svg>
